<svg xmlns="http://www.w3.org/2000/svg" viewBox="0 0 150 150">
    <path fill="none" stroke="#000" stroke-miterlimit="10" stroke-width="5" d="M25 12.5h100v125H25zM25 50H0m25 50H0m125-50h25m-25 50h25"/>
    <path d="m111.57 53.9 2 1.29-1.36 3.16-2-1.44a4.78 4.78 0 0 1-4 2.34 5.08 5.08 0 0 1-4.48-2.46 12.52 12.52 0 0 1-1.73-6.91 12.5 12.5 0 0 1 1.62-6.88 5.15 5.15 0 0 1 8.79 0 12.5 12.5 0 0 1 1.59 6.88c0 3.18-.43 4.02-.43 4.02Zm-2.37-1.33a13.51 13.51 0 0 0 .24-2.69 9.25 9.25 0 0 0-.94-4.7 2.76 2.76 0 0 0-5 0 9.22 9.22 0 0 0-1 4.69 9.44 9.44 0 0 0 1 4.75 2.84 2.84 0 0 0 2.41 1.58 2.41 2.41 0 0 0 1.9-.85l-2-1.44 1.52-2.66m4.24 52.65 2 1.29-1.36 3.16-2-1.44a4.78 4.78 0 0 1-4 2.34 5.08 5.08 0 0 1-4.48-2.46 12.52 12.52 0 0 1-1.73-6.91 12.5 12.5 0 0 1 1.62-6.88 5.15 5.15 0 0 1 8.79 0 12.5 12.5 0 0 1 1.59 6.88c0 3.18-.43 4.02-.43 4.02Zm-2.37-1.33a13.51 13.51 0 0 0 .24-2.69 9.25 9.25 0 0 0-.94-4.7 2.76 2.76 0 0 0-5 0 9.22 9.22 0 0 0-1 4.69 9.44 9.44 0 0 0 1 4.75 2.84 2.84 0 0 0 2.41 1.58 2.41 2.41 0 0 0 1.9-.85l-2-1.44 1.52-2.66"/>
    <path fill="none" stroke="#000" stroke-miterlimit="10" stroke-width="5" d="M97 84.25h18.75"/>
    <path d="M37.5 40.79H43a8.67 8.67 0 0 1 2.84.35 5 5 0 0 1 2.25 1.7 8.56 8.56 0 0 1 1.42 3 16.43 16.43 0 0 1 .49 4.35 14.62 14.62 0 0 1-.46 3.93A8.69 8.69 0 0 1 48 57.39a5.17 5.17 0 0 1-2.12 1.47 7.44 7.44 0 0 1-2.66.39H37.5Zm3 3.12v12.23h2.25a6.53 6.53 0 0 0 1.83-.14 2.53 2.53 0 0 0 1.21-.77 4.06 4.06 0 0 0 .79-1.78 14.31 14.31 0 0 0 .31-3.45 13.2 13.2 0 0 0-.31-3.29 4.48 4.48 0 0 0-.85-1.71 2.7 2.7 0 0 0-1.4-.87 10.82 10.82 0 0 0-2.47-.18Zm27.75-6.38 3.14-.34a4.57 4.57 0 0 0 1.15 2.63 3.23 3.23 0 0 0 2.34.84 3.3 3.3 0 0 0 2.35-.75 2.32 2.32 0 0 0 .77-1.75 1.79 1.79 0 0 0-.33-1.09 2.7 2.7 0 0 0-1.16-.79c-.38-.14-1.24-.41-2.59-.79a8.24 8.24 0 0 1-3.62-1.79 5 5 0 0 1-1.47-3.64 5.1 5.1 0 0 1 .69-2.59 4.49 4.49 0 0 1 2-1.84 7.19 7.19 0 0 1 3.14-.63 6.19 6.19 0 0 1 4.53 1.5 5.55 5.55 0 0 1 1.6 4l-3.23.16a3.2 3.2 0 0 0-.89-2 2.94 2.94 0 0 0-2-.61 3.39 3.39 0 0 0-2.2.65 1.37 1.37 0 0 0-.52 1.13 1.47 1.47 0 0 0 .48 1.1 7.91 7.91 0 0 0 3 1.21 14.32 14.32 0 0 1 3.48 1.3 4.74 4.74 0 0 1 1.77 1.84 5.94 5.94 0 0 1 .64 2.89 5.86 5.86 0 0 1-.76 2.92 4.8 4.8 0 0 1-2.16 2 8.12 8.12 0 0 1-3.48.66 6.39 6.39 0 0 1-4.66-1.59 7.31 7.31 0 0 1-2.01-4.63Zm.5 87.47v-18.46h5.91a7.88 7.88 0 0 1 3.24.49 3.65 3.65 0 0 1 1.61 1.77 6.62 6.62 0 0 1 .61 2.91 6 6 0 0 1-.92 3.43 4 4 0 0 1-2.75 1.71A7.06 7.06 0 0 1 78 118.4a21.07 21.07 0 0 1 1.6 3l1.7 3.6h-3.41l-2-4a25.94 25.94 0 0 0-1.48-2.71 2.14 2.14 0 0 0-.84-.77 3.53 3.53 0 0 0-1.41-.21h-.57V125Zm2.81-10.66h2.07a8.35 8.35 0 0 0 2.53-.22 1.64 1.64 0 0 0 .78-.78 3 3 0 0 0 .29-1.39 2.69 2.69 0 0 0-.38-1.5 1.61 1.61 0 0 0-1-.73 18.74 18.74 0 0 0-2-.06h-2.29Z"/>
    <path fill="none" stroke="#000" stroke-width="5" d="M75.28 0v12.5M74.72 150v-12.5"/>
    <path fill="none" stroke="#000" stroke-miterlimit="10" stroke-width="5" d="M25 87.5 50 100l-25 12.5v-25z"/>
</svg>
