<svg xmlns="http://www.w3.org/2000/svg" viewBox="0 0 150 150">
    <path fill="none" stroke="#000" stroke-miterlimit="10" stroke-width="5" d="M25 12.5h100v125H25zM25 50H0m25 50H0m125-50h25m-25 50h25"/>
    <path d="m111.57 53.9 2 1.29-1.36 3.16-2-1.44a4.78 4.78 0 0 1-4 2.34 5.08 5.08 0 0 1-4.48-2.46 12.52 12.52 0 0 1-1.73-6.91 12.5 12.5 0 0 1 1.62-6.88 5.15 5.15 0 0 1 8.79 0 12.5 12.5 0 0 1 1.59 6.88c0 3.18-.43 4.02-.43 4.02Zm-2.37-1.33a13.51 13.51 0 0 0 .24-2.69 9.25 9.25 0 0 0-.94-4.7 2.76 2.76 0 0 0-5 0 9.22 9.22 0 0 0-1 4.69 9.44 9.44 0 0 0 1 4.75 2.84 2.84 0 0 0 2.41 1.58 2.41 2.41 0 0 0 1.9-.85l-2-1.44 1.52-2.66m4.24 52.65 2 1.29-1.36 3.16-2-1.44a4.78 4.78 0 0 1-4 2.34 5.08 5.08 0 0 1-4.48-2.46 12.52 12.52 0 0 1-1.73-6.91 12.5 12.5 0 0 1 1.62-6.88 5.15 5.15 0 0 1 8.79 0 12.5 12.5 0 0 1 1.59 6.88c0 3.18-.43 4.02-.43 4.02Zm-2.37-1.33a13.51 13.51 0 0 0 .24-2.69 9.25 9.25 0 0 0-.94-4.7 2.76 2.76 0 0 0-5 0 9.22 9.22 0 0 0-1 4.69 9.44 9.44 0 0 0 1 4.75 2.84 2.84 0 0 0 2.41 1.58 2.41 2.41 0 0 0 1.9-.85l-2-1.44 1.52-2.66"/>
    <path fill="none" stroke="#000" stroke-miterlimit="10" stroke-width="5" d="M97 84.25h18.75"/>
    <path d="M37.5 109.21V90.75h12.19v3.12h-8.87V98h8.25v3.11h-8.25v5H50v3.11Zm0-68.42H43a8.67 8.67 0 0 1 2.84.35 5 5 0 0 1 2.25 1.7 8.56 8.56 0 0 1 1.42 3 16.43 16.43 0 0 1 .49 4.35 14.62 14.62 0 0 1-.46 3.93A8.69 8.69 0 0 1 48 57.39a5.17 5.17 0 0 1-2.12 1.47 7.44 7.44 0 0 1-2.66.39H37.5Zm3 3.12v12.23h2.25a6.53 6.53 0 0 0 1.83-.14 2.53 2.53 0 0 0 1.21-.77 4.06 4.06 0 0 0 .79-1.78 14.31 14.31 0 0 0 .31-3.45 13.2 13.2 0 0 0-.31-3.29 4.48 4.48 0 0 0-.85-1.71 2.7 2.7 0 0 0-1.4-.87 10.82 10.82 0 0 0-2.47-.18Z"/>
</svg>
