<svg xmlns="http://www.w3.org/2000/svg" viewBox="0 0 150 150">
    <path fill="none" stroke="#000" stroke-miterlimit="10" stroke-width="5" d="M25 12.5h100v125H25zM25 50H0m25 50H0m125-50h25m-25 50h25"/>
    <path d="m111.57 53.9 2 1.29-1.36 3.16-2-1.44a4.78 4.78 0 0 1-4 2.34 5.08 5.08 0 0 1-4.48-2.46 12.52 12.52 0 0 1-1.73-6.91 12.5 12.5 0 0 1 1.62-6.88 5.15 5.15 0 0 1 8.79 0 12.5 12.5 0 0 1 1.59 6.88c0 3.18-.43 4.02-.43 4.02Zm-2.37-1.33a13.51 13.51 0 0 0 .24-2.69 9.25 9.25 0 0 0-.94-4.7 2.76 2.76 0 0 0-5 0 9.22 9.22 0 0 0-1 4.69 9.44 9.44 0 0 0 1 4.75 2.84 2.84 0 0 0 2.41 1.58 2.41 2.41 0 0 0 1.9-.85l-2-1.44 1.52-2.66m4.24 52.65 2 1.29-1.36 3.16-2-1.44a4.78 4.78 0 0 1-4 2.34 5.08 5.08 0 0 1-4.48-2.46 12.52 12.52 0 0 1-1.73-6.91 12.5 12.5 0 0 1 1.62-6.88 5.15 5.15 0 0 1 8.79 0 12.5 12.5 0 0 1 1.59 6.88c0 3.18-.43 4.02-.43 4.02Zm-2.37-1.33a13.51 13.51 0 0 0 .24-2.69 9.25 9.25 0 0 0-.94-4.7 2.76 2.76 0 0 0-5 0 9.22 9.22 0 0 0-1 4.69 9.44 9.44 0 0 0 1 4.75 2.84 2.84 0 0 0 2.41 1.58 2.41 2.41 0 0 0 1.9-.85l-2-1.44 1.52-2.66"/>
    <path fill="none" stroke="#000" stroke-miterlimit="10" stroke-width="5" d="M97 84.25h18.75M25 62.5 50 75 25 87.5v-25zM0 74.53h25.06"/>
    <path d="M46.13 40.5h3.93v11.67a11.4 11.4 0 0 1-.42 3.52 5.12 5.12 0 0 1-2.08 2.59 7.23 7.23 0 0 1-4 1 6.11 6.11 0 0 1-4.46-1.53c-1-1-1.56-3.75-1.57-5.72h3.72a9.46 9.46 0 0 0 .49 3.07 2.16 2.16 0 0 0 1.95 1 2.21 2.21 0 0 0 1.86-.71 5.29 5.29 0 0 0 .55-3ZM37.56 109V90.5h2.8v8.2L46 90.5h3.76l-5.22 7.19L50.06 109h-3.62l-3.81-8.66-2.27 3.08V109Z"/>
</svg>
