<svg xmlns="http://www.w3.org/2000/svg" viewBox="0 0 150 150">
    <g fill="none" stroke="#000" stroke-width="5">
        <path stroke-linejoin="round" d="M0 25h12.5s0 18.81 15.63 18.81 15.62-18.68 15.62-18.68 0 18.75 15.63 18.75S75 25.13 75 25.13s0 18.75 15.63 18.75 15.62-18.75 15.62-18.75 0 18.75 15.63 18.75 15.62-18.75 15.62-18.75H150M12.5 56.25h125"/>
        <g stroke-miterlimit="10">
            <circle cx="37.5" cy="99" r="6.25"/>
            <path d="M0 99.06h31.25"/>
        </g>
        <g stroke-miterlimit="10">
            <circle cx="112.5" cy="75" r="6.25"/>
            <path d="M150 74.94h-31.25"/>
        </g>
        <path stroke-miterlimit="10" d="m43.75 102.25 87.5 16.5"/>
        <g stroke-miterlimit="10">
            <circle cx="112.5" cy="125" r="6.25"/>
            <path d="M150 124.94h-31.25"/>
        </g>
    </g>
</svg>
