<svg xmlns="http://www.w3.org/2000/svg" viewBox="0 0 150 150">
    <path fill="none" stroke="#000" stroke-linejoin="bevel" stroke-width="5" d="M0 74.94h31.25l10.29-24.97L54.92 100l13.39-50 13.38 50 13.39-49.62L108.46 100l10.29-25H150"/>
    <path fill="none" stroke="#000" stroke-miterlimit="10" stroke-width="5" d="M12.5 112.5h31.25l65.5-78"/>
    <path d="M111.59 118.11v4h-3.34v7.6a20.75 20.75 0 0 0 .09 2.7 1.14 1.14 0 0 0 .44.63 1.38 1.38 0 0 0 .82.25 9.4 9.4 0 0 0 2.45-.57v3.88a9.85 9.85 0 0 1-3.93.83 5.88 5.88 0 0 1-2.38-.46 3.46 3.46 0 0 1-1.56-1.17 4.74 4.74 0 0 1-.69-1.95 25.69 25.69 0 0 1-.15-3.51v-8.23H100v-4h3.31v-7h4.91v7Zm2.33-6.28a5.53 5.53 0 0 1 1.63-4 5.33 5.33 0 0 1 3.93-1.65 5.27 5.27 0 0 1 3.92 1.66 5.74 5.74 0 0 1 0 8 5.45 5.45 0 0 1-7.85 0 5.52 5.52 0 0 1-1.63-4.01Zm2.89 0a2.64 2.64 0 0 0 .79 1.92 2.63 2.63 0 0 0 3.76 0 2.67 2.67 0 0 0 .78-1.92 2.64 2.64 0 0 0-.78-1.92 2.61 2.61 0 0 0-3.76 0 2.61 2.61 0 0 0-.79 1.92Z"/>
</svg>
