<svg xmlns="http://www.w3.org/2000/svg" viewBox="0 0 150 150">
    <g fill="none" stroke="#000" stroke-linejoin="round" stroke-width="5">
        <path d="M0 12.5h37.5s18.81 0 18.81 15.63-18.68 15.62-18.68 15.62 18.75 0 18.75 15.63S37.63 75 37.63 75s18.75 0 18.75 15.63-18.75 15.62-18.75 15.62 18.75 0 18.75 15.63-18.75 15.62-18.75 15.62H0M68.75 6.25v137.5m12.5 0V6.25"/>
        <path d="M150 68.75h-37.5s-18.75 0-18.75-14.07 18.75-14.06 18.75-14.06-18.75 0-18.75-14.06S112.5 12.5 112.5 12.5h37.62m-.24 125h-37.5s-18.75 0-18.75-14.07 18.75-14.06 18.75-14.06-18.75 0-18.75-14.06 18.75-14.06 18.75-14.06H150" data-name="Inductor"/>
    </g>
</svg>
