<svg xmlns="http://www.w3.org/2000/svg" viewBox="0 0 150 150">
    <g fill="none" stroke="#000" stroke-linejoin="round" stroke-width="5">
        <path d="M0 12.5h37.5s18.81 0 18.81 15.63-18.68 15.62-18.68 15.62 18.75 0 18.75 15.63S37.63 75 37.63 75s18.75 0 18.75 15.63-18.75 15.62-18.75 15.62 18.75 0 18.75 15.63-18.75 15.62-18.75 15.62H0M68.75 6.25v137.5m12.5 0V6.25"/>
        <path d="M150.13 137.5h-37.5s-18.82 0-18.82-15.62 18.69-15.63 18.69-15.63-18.75 0-18.75-15.62S112.5 75 112.5 75s-18.75 0-18.75-15.62 18.75-15.63 18.75-15.63-18.75 0-18.75-15.62S112.5 12.5 112.5 12.5h37.63" data-name="Inductor"/>
        <path d="M112.5 75H150"/>
    </g>
</svg>
